<svg width="66" height="14" viewBox="0 0 66 14" fill="none" xmlns="http://www.w3.org/2000/svg">
<g clip-path="url(#clip0_2_11)">
<path d="M0.878678 3.12132C0.488154 2.7308 0.488154 2.09763 0.878678 1.70711L2.29289 0.292893C2.68342 -0.097631 3.31658 -0.097631 3.70711 0.292893L5.12132 1.70711C5.51184 2.09763 5.51184 2.7308 5.12132 3.12132L3.70711 4.53553C3.31658 4.92606 2.68342 4.92606 2.29289 4.53553L0.878678 3.12132Z" fill="#3755F0"/>
<path d="M0.878678 8.94969C0.488154 8.55917 0.488154 7.926 0.878678 7.53548L2.29289 6.12126C2.68342 5.73074 3.31658 5.73074 3.70711 6.12126L5.12132 7.53548C5.51184 7.926 5.51184 8.55917 5.12132 8.94969L3.70711 10.3639C3.31658 10.7544 2.68342 10.7544 2.29289 10.3639L0.878678 8.94969Z" fill="#3755F0"/>
<path d="M4.70711 5.94969C4.31658 5.55917 4.31658 4.926 4.70711 4.53548L6.12132 3.12126C6.51185 2.73074 7.14501 2.73074 7.53554 3.12126L8.94975 4.53548C9.34027 4.926 9.34027 5.55917 8.94975 5.94969L7.53554 7.3639C7.14501 7.75443 6.51185 7.75443 6.12132 7.3639L4.70711 5.94969Z" fill="#3755F0"/>
<path d="M4.70711 11.7781C4.31658 11.3875 4.31658 10.7544 4.70711 10.3638L6.12132 8.94963C6.51185 8.55911 7.14501 8.55911 7.53554 8.94963L8.94975 10.3638C9.34027 10.7544 9.34027 11.3875 8.94975 11.7781L7.53554 13.1923C7.14501 13.5828 6.51185 13.5828 6.12132 13.1923L4.70711 11.7781Z" fill="#3755F0"/>
<path d="M16.1226 10.28V11H14.0826V10.28H14.6826V3.92002H14.0826V3.20002H16.1226V3.92002H15.5226V10.28H16.1226ZM18.9975 11H18.1575V3.20002H18.5175L18.8175 3.98002C19.2015 3.34002 19.7335 3.02002 20.4135 3.02002C21.5895 3.02002 22.1775 3.58002 22.1775 4.70002V11H21.3375V4.70002C21.3375 4.39602 21.2695 4.16002 21.1335 3.99202C21.0055 3.82402 20.7655 3.74002 20.4135 3.74002C20.0615 3.74002 19.7375 3.87602 19.4415 4.14802C19.1455 4.42002 18.9975 4.68402 18.9975 4.94002V11ZM26.7662 11H25.5062L23.7422 3.20002H24.5822L26.1302 10.076L27.6902 3.20002H28.5302L26.7662 11ZM33.1444 9.50002V8.84002H33.9844V9.50002C33.9844 10.036 33.8204 10.452 33.4924 10.748C33.1644 11.036 32.6724 11.18 32.0164 11.18C31.3604 11.18 30.8644 11.036 30.5284 10.748C30.1924 10.452 30.0244 10.036 30.0244 9.50002V4.70002C30.0244 4.16402 30.1884 3.75202 30.5164 3.46402C30.8444 3.16802 31.3364 3.02002 31.9924 3.02002C32.6484 3.02002 33.1444 3.16802 33.4804 3.46402C33.8164 3.75202 33.9844 4.16402 33.9844 4.70002V7.34002H30.8644V9.50002C30.8644 10.14 31.2444 10.46 32.0044 10.46C32.7644 10.46 33.1444 10.14 33.1444 9.50002ZM30.8644 4.70002V6.62002H33.1444V4.70002C33.1444 4.06002 32.7644 3.74002 32.0044 3.74002C31.2444 3.74002 30.8644 4.06002 30.8644 4.70002ZM40.0204 9.50002C40.0204 10.62 39.3444 11.18 37.9924 11.18C36.6404 11.18 35.9644 10.62 35.9644 9.50002V8.48002H36.8044V9.54802C36.8044 9.83602 36.9044 10.06 37.1044 10.22C37.3044 10.38 37.6004 10.46 37.9924 10.46C38.3844 10.46 38.6804 10.38 38.8804 10.22C39.0804 10.06 39.1804 9.84402 39.1804 9.57202C39.1804 9.29202 39.1484 9.07202 39.0844 8.91202C39.0284 8.74402 38.9084 8.56802 38.7244 8.38402L36.6124 6.32002C36.3644 6.07202 36.1924 5.83202 36.0964 5.60002C36.0084 5.36002 35.9644 5.06002 35.9644 4.70002C35.9644 4.16402 36.1284 3.75202 36.4564 3.46402C36.7924 3.16802 37.2964 3.02002 37.9684 3.02002C39.2564 3.02002 39.9004 3.58002 39.9004 4.70002V5.72002H39.0604V4.65202C39.0604 4.36402 38.9644 4.14002 38.7724 3.98002C38.5884 3.82002 38.3084 3.74002 37.9324 3.74002C37.5564 3.74002 37.2724 3.82002 37.0804 3.98002C36.8964 4.14002 36.8044 4.36002 36.8044 4.64002C36.8044 4.92002 36.8324 5.14002 36.8884 5.30002C36.9444 5.46002 37.0684 5.62802 37.2604 5.80402L39.4084 7.86802C39.6404 8.12402 39.8004 8.37202 39.8884 8.61202C39.9764 8.84402 40.0204 9.14002 40.0204 9.50002ZM42.0009 3.20002H44.6409V3.92002H42.8409V9.66802C42.8409 9.89202 42.8969 10.08 43.0089 10.232C43.1289 10.384 43.2929 10.46 43.5009 10.46C43.7169 10.46 43.8809 10.388 43.9929 10.244C44.1049 10.092 44.1609 9.90002 44.1609 9.66802V8.24002H45.0009V9.62002C45.0009 10.124 44.8649 10.512 44.5929 10.784C44.3289 11.048 43.9689 11.18 43.5129 11.18C43.0569 11.18 42.6889 11.048 42.4089 10.784C42.1369 10.512 42.0009 10.124 42.0009 9.62002V3.20002ZM50.5809 4.70002V9.50002C50.5809 10.036 50.4089 10.452 50.0649 10.748C49.7289 11.036 49.2209 11.18 48.5409 11.18C47.8689 11.18 47.3609 11.036 47.0169 10.748C46.6729 10.452 46.5009 10.036 46.5009 9.50002V4.70002C46.5009 4.16402 46.6689 3.75202 47.0049 3.46402C47.3489 3.16802 47.8569 3.02002 48.5289 3.02002C49.2089 3.02002 49.7209 3.16802 50.0649 3.46402C50.4089 3.75202 50.5809 4.16402 50.5809 4.70002ZM49.7409 9.50002V4.70002C49.7409 4.06002 49.3409 3.74002 48.5409 3.74002C47.7409 3.74002 47.3409 4.06002 47.3409 4.70002V9.50002C47.3409 10.14 47.7409 10.46 48.5409 10.46C49.3409 10.46 49.7409 10.14 49.7409 9.50002ZM53.6381 11H52.7981V3.20002H53.1581L53.5061 4.08802C53.7621 3.37602 54.1701 3.02002 54.7301 3.02002C55.6821 3.02002 56.1581 3.54002 56.1581 4.58002V5.36002H55.3541V4.53202C55.3541 4.00402 55.1341 3.74002 54.6941 3.74002C54.4301 3.74002 54.1861 3.89202 53.9621 4.19602C53.7461 4.50002 53.6381 4.94002 53.6381 5.51602V11ZM64.1124 11H63.2364L61.8804 7.96402L60.5244 11H59.6484L61.4484 6.98002L59.7684 3.20002H60.6444L61.9284 6.10402L63.2364 3.20002H64.1124L62.3724 7.08802L64.1124 11Z" fill="black"/>
</g>
<defs>
<clipPath id="clip0_2_11">
<rect width="66" height="14" fill="white"/>
</clipPath>
</defs>
</svg>
