<svg width="98" height="28" viewBox="0 0 98 28" fill="none" xmlns="http://www.w3.org/2000/svg">
<path d="M8.49847 25.2001H4.70862C4.61017 25.2001 4.56097 25.1454 4.56097 25.036V5.87355H0.196899C0.0875243 5.87355 0.0328369 5.81883 0.0328369 5.70947L0.0656493 1.95244C0.0656493 1.86494 0.109399 1.82119 0.196899 1.82119H12.961C13.0813 1.82119 13.1414 1.86494 13.1414 1.95244V5.70947C13.1414 5.81883 13.0977 5.87355 13.0102 5.87355H8.59689L8.62971 25.036C8.62971 25.1454 8.58597 25.2001 8.49847 25.2001ZM28.1274 25.2001H24.3213C24.2338 25.2001 24.1901 25.1454 24.1901 25.036L24.2557 1.95244C24.2557 1.86494 24.2994 1.82119 24.3869 1.82119H31.1791C32.3932 1.82119 33.5087 2.1165 34.526 2.70713C35.5432 3.29774 36.3524 4.09073 36.9541 5.08605C37.5665 6.08136 37.8728 7.20791 37.8728 8.46573C37.8728 9.28605 37.7471 10.0298 37.4954 10.697C37.2439 11.3641 36.9485 11.9275 36.6095 12.3868C36.2816 12.8462 35.9806 13.1852 35.7073 13.404C36.9214 14.7493 37.5284 16.3298 37.5284 18.1454L37.5612 25.036C37.5612 25.1454 37.5066 25.2001 37.3971 25.2001H33.5908C33.5034 25.2001 33.4595 25.1673 33.4595 25.1016V18.1454C33.4595 17.336 33.1753 16.636 32.6066 16.0454C32.0376 15.4548 31.3376 15.1595 30.5066 15.1595H28.2915L28.2587 25.036C28.2587 25.1454 28.2151 25.2001 28.1274 25.2001ZM31.1791 5.84073H28.2915V11.1235H31.1791C31.8682 11.1235 32.4806 10.8665 33.0165 10.3525C33.5636 9.83837 33.8369 9.20947 33.8369 8.46573C33.8369 7.75478 33.5745 7.14228 33.0495 6.62823C32.5245 6.10323 31.901 5.84073 31.1791 5.84073ZM70.2405 25.2001H66.4342C66.3247 25.2001 66.2701 25.1454 66.2701 25.036L66.3029 1.95244C66.3029 1.86494 66.3466 1.82119 66.4342 1.82119H70.2075C70.2951 1.82119 70.3388 1.86494 70.3388 1.95244L70.3716 25.036C70.3716 25.1454 70.3279 25.2001 70.2405 25.2001ZM88.9507 25.5282C87.7585 25.5282 86.6595 25.222 85.6531 24.6095C84.6577 23.997 83.8539 23.1821 83.2415 22.165C82.6398 21.1368 82.3391 20.0102 82.3391 18.7852L82.3718 8.1376C82.3718 6.89073 82.6725 5.76964 83.2743 4.77432C83.8648 3.76806 84.6633 2.96415 85.6694 2.3626C86.6757 1.7501 87.7694 1.44385 88.9507 1.44385C90.1757 1.44385 91.275 1.74463 92.2485 2.34619C93.2327 2.94774 94.0204 3.75714 94.6109 4.77432C95.2126 5.78056 95.5133 6.90165 95.5133 8.1376L95.5461 18.7852C95.5461 20.0102 95.2507 21.1314 94.6602 22.1485C94.0585 23.1766 93.2602 23.997 92.2648 24.6095C91.2694 25.222 90.1648 25.5282 88.9507 25.5282ZM88.9507 21.4759C89.6289 21.4759 90.2194 21.2025 90.7225 20.6556C91.2257 20.0977 91.4774 19.4743 91.4774 18.7852L91.4444 8.1376C91.4444 7.39383 91.2095 6.76495 90.7391 6.25087C90.2687 5.73682 89.6725 5.47978 88.9507 5.47978C88.2616 5.47978 87.6711 5.73136 87.1789 6.23447C86.6866 6.7376 86.4405 7.37197 86.4405 8.1376V18.7852C86.4405 19.5181 86.6866 20.1525 87.1789 20.6884C87.6711 21.2134 88.2616 21.4759 88.9507 21.4759Z" fill="#1D1D1D"/>
<path d="M53.7776 25.2H49.9716C49.8621 25.2 49.8075 25.1453 49.8075 25.0359L49.8403 1.95229C49.8403 1.86479 49.8839 1.82104 49.9716 1.82104H53.7449C53.8325 1.82104 53.8762 1.86479 53.8762 1.95229L53.9089 25.0359C53.9089 25.1453 53.8653 25.2 53.7776 25.2Z" fill="white"/>
</svg>
